<svg width="92" height="32" viewBox="0 0 92 32" fill="none" xmlns="http://www.w3.org/2000/svg">
<g clip-path="url(#clip0)">
<path d="M2.5495e-08 4C2.5495e-08 1.79 1.75 0 3.9 0H88.1C90.25 0 92 1.79 92 4V28C92 30.21 90.25 32 88.1 32H3.9C3.38127 31.9935 2.8689 31.8848 2.39216 31.6803C1.91541 31.4757 1.48364 31.1793 1.12148 30.8078C0.759322 30.4364 0.473881 29.9972 0.281456 29.5155C0.0890316 29.0337 -0.00660777 28.5187 2.5495e-08 28V4Z" fill="#FA5252"/>
<path fill-rule="evenodd" clip-rule="evenodd" d="M32 32V0H33V32H32Z" fill="#D40229"/>
<path d="M13.5 16C13.5 16.55 13.05 17 12.5 17C11.95 17 11.5 16.55 11.5 16C11.5 15.45 11.95 15 12.5 15C13.05 15 13.5 15.45 13.5 16ZM17.75 14C18.3 14 18.75 13.55 18.75 13C18.75 12.45 18.3 12 17.75 12C17.2 12 16.75 12.45 16.75 13C16.75 13.55 17.2 14 17.75 14ZM14.25 14C14.8 14 15.25 13.55 15.25 13C15.25 12.45 14.8 12 14.25 12C13.7 12 13.25 12.45 13.25 13C13.25 13.55 13.7 14 14.25 14ZM14.25 18C13.7 18 13.25 18.45 13.25 19C13.25 19.55 13.7 20 14.25 20C14.8 20 15.25 19.55 15.25 19C15.25 18.45 14.8 18 14.25 18ZM26 15.25V16.75C26 17.16 25.66 17.5 25.25 17.5C24.84 17.5 24.5 17.16 24.5 16.75H22.96C22.81 18.12 22.27 19.38 21.44 20.4L22.53 21.49L22.54 21.48C22.83 21.19 23.31 21.19 23.6 21.48C23.89 21.77 23.89 22.25 23.6 22.54L22.54 23.6C22.25 23.89 21.77 23.89 21.48 23.6C21.19 23.31 21.19 22.84 21.47 22.55L20.38 21.46C19.36 22.28 18.11 22.82 16.74 22.97V24.51H16.75C17.16 24.51 17.5 24.85 17.5 25.26C17.5 25.67 17.16 26.01 16.75 26.01H15.25C14.84 26.01 14.5 25.67 14.5 25.26C14.5 24.85 14.83 24.52 15.24 24.51V22.96C13.87 22.81 12.62 22.27 11.61 21.45L10.52 22.54L10.53 22.55C10.82 22.84 10.82 23.32 10.53 23.61C10.24 23.9 9.76 23.9 9.47 23.61L8.4 22.54C8.11 22.25 8.11 21.77 8.4 21.48C8.69 21.19 9.16 21.19 9.45 21.47L10.54 20.38C9.72 19.36 9.18 18.12 9.04 16.75H7.5C7.5 17.16 7.16 17.5 6.75 17.5C6.34 17.5 6 17.16 6 16.75V15.25C6 14.84 6.34 14.5 6.75 14.5C7.16 14.5 7.5 14.84 7.5 15.25H9.04C9.19 13.88 9.73 12.64 10.54 11.62L9.45 10.53C9.16 10.81 8.69 10.81 8.4 10.52C8.11 10.23 8.11 9.75 8.4 9.46L9.46 8.4C9.75 8.11 10.23 8.11 10.52 8.4C10.81 8.69 10.81 9.17 10.52 9.46L10.51 9.47L11.6 10.56C12.62 9.74 13.86 9.2 15.23 9.05V7.5C14.82 7.49 14.49 7.16 14.49 6.75C14.5 6.34 14.84 6 15.25 6H16.75C17.16 6 17.5 6.34 17.5 6.75C17.5 7.16 17.16 7.5 16.75 7.5H16.74V9.04C18.11 9.18 19.36 9.73 20.38 10.55L21.47 9.46C21.18 9.17 21.19 8.7 21.48 8.41C21.77 8.12 22.25 8.12 22.54 8.41L23.6 9.47C23.89 9.76 23.89 10.24 23.6 10.53C23.31 10.82 22.83 10.82 22.54 10.53L22.53 10.52L21.44 11.6C22.26 12.62 22.81 13.87 22.96 15.25H24.5C24.5 14.84 24.84 14.5 25.25 14.5C25.66 14.5 26 14.84 26 15.25ZM21 16C21 13.24 18.76 11 16 11C13.24 11 11 13.24 11 16C11 18.76 13.24 21 16 21C18.76 21 21 18.76 21 16ZM16 15C15.45 15 15 15.45 15 16C15 16.55 15.45 17 16 17C16.55 17 17 16.55 17 16C17 15.45 16.55 15 16 15ZM19.5 15C18.95 15 18.5 15.45 18.5 16C18.5 16.55 18.95 17 19.5 17C20.05 17 20.5 16.55 20.5 16C20.5 15.45 20.05 15 19.5 15ZM17.75 18C17.2 18 16.75 18.45 16.75 19C16.75 19.55 17.2 20 17.75 20C18.3 20 18.75 19.55 18.75 19C18.75 18.45 18.3 18 17.75 18Z" fill="white"/>
<path d="M41.202 14.06C41.334 14.126 41.409 14.228 41.427 14.366C41.451 14.504 41.418 14.63 41.328 14.744C41.262 14.834 41.175 14.885 41.067 14.897C40.965 14.909 40.863 14.888 40.761 14.834C40.587 14.744 40.404 14.672 40.212 14.618C40.02 14.564 39.816 14.537 39.6 14.537C39.258 14.537 38.949 14.594 38.673 14.708C38.403 14.816 38.169 14.975 37.971 15.185C37.773 15.389 37.62 15.632 37.512 15.914C37.41 16.196 37.359 16.508 37.359 16.85C37.359 17.228 37.416 17.564 37.53 17.858C37.644 18.146 37.8 18.392 37.998 18.596C38.202 18.794 38.439 18.944 38.709 19.046C38.985 19.142 39.282 19.19 39.6 19.19C39.804 19.19 40.002 19.166 40.194 19.118C40.392 19.07 40.578 18.998 40.752 18.902C40.86 18.848 40.965 18.83 41.067 18.848C41.175 18.86 41.262 18.911 41.328 19.001C41.43 19.127 41.466 19.256 41.436 19.388C41.412 19.514 41.337 19.61 41.211 19.676C41.061 19.76 40.896 19.832 40.716 19.892C40.536 19.952 40.353 20 40.167 20.036C39.981 20.072 39.792 20.09 39.6 20.09C39.168 20.09 38.76 20.018 38.376 19.874C37.992 19.73 37.65 19.52 37.35 19.244C37.05 18.968 36.813 18.629 36.639 18.227C36.471 17.825 36.387 17.366 36.387 16.85C36.387 16.388 36.465 15.962 36.621 15.572C36.783 15.176 37.008 14.837 37.296 14.555C37.59 14.267 37.932 14.045 38.322 13.889C38.712 13.727 39.138 13.646 39.6 13.646C39.888 13.646 40.167 13.682 40.437 13.754C40.713 13.826 40.968 13.928 41.202 14.06ZM46.8877 17.633C46.8877 18.113 46.7827 18.539 46.5727 18.911C46.3627 19.277 46.0777 19.565 45.7177 19.775C45.3577 19.985 44.9527 20.09 44.5027 20.09C44.0527 20.09 43.6477 19.985 43.2877 19.775C42.9277 19.565 42.6397 19.277 42.4237 18.911C42.2137 18.539 42.1087 18.113 42.1087 17.633C42.1087 17.147 42.2137 16.721 42.4237 16.355C42.6397 15.983 42.9277 15.692 43.2877 15.482C43.6477 15.266 44.0527 15.158 44.5027 15.158C44.9527 15.158 45.3577 15.266 45.7177 15.482C46.0777 15.692 46.3627 15.983 46.5727 16.355C46.7827 16.721 46.8877 17.147 46.8877 17.633ZM45.9877 17.633C45.9877 17.303 45.9217 17.018 45.7897 16.778C45.6577 16.532 45.4777 16.34 45.2497 16.202C45.0277 16.058 44.7787 15.986 44.5027 15.986C44.2267 15.986 43.9747 16.058 43.7467 16.202C43.5187 16.34 43.3387 16.532 43.2067 16.778C43.0747 17.018 43.0087 17.303 43.0087 17.633C43.0087 17.951 43.0747 18.233 43.2067 18.479C43.3387 18.725 43.5187 18.917 43.7467 19.055C43.9747 19.193 44.2267 19.262 44.5027 19.262C44.7787 19.262 45.0277 19.193 45.2497 19.055C45.4777 18.917 45.6577 18.725 45.7897 18.479C45.9217 18.233 45.9877 17.951 45.9877 17.633ZM47.9704 15.221C48.0604 15.221 48.1444 15.245 48.2224 15.293C48.3064 15.341 48.3664 15.413 48.4024 15.509L49.8154 18.776L49.6444 18.857L51.0754 15.518C51.1594 15.32 51.2944 15.224 51.4804 15.23C51.6004 15.23 51.6994 15.269 51.7774 15.347C51.8614 15.419 51.9034 15.515 51.9034 15.635C51.9034 15.671 51.8974 15.71 51.8854 15.752C51.8734 15.788 51.8584 15.824 51.8404 15.86L50.1304 19.712C50.0524 19.892 49.9234 19.988 49.7434 20C49.6534 20.012 49.5634 19.994 49.4734 19.946C49.3894 19.892 49.3234 19.814 49.2754 19.712L47.5744 15.86C47.5624 15.836 47.5504 15.806 47.5384 15.77C47.5264 15.728 47.5204 15.68 47.5204 15.626C47.5204 15.536 47.5594 15.446 47.6374 15.356C47.7214 15.266 47.8324 15.221 47.9704 15.221ZM53.6655 19.541C53.6655 19.673 53.6235 19.784 53.5395 19.874C53.4555 19.958 53.3475 20 53.2155 20C53.0895 20 52.9815 19.958 52.8915 19.874C52.8075 19.784 52.7655 19.673 52.7655 19.541V15.689C52.7655 15.557 52.8075 15.449 52.8915 15.365C52.9815 15.275 53.0895 15.23 53.2155 15.23C53.3475 15.23 53.4555 15.275 53.5395 15.365C53.6235 15.449 53.6655 15.557 53.6655 15.689V19.541ZM53.2065 14.636C53.0325 14.636 52.9065 14.606 52.8285 14.546C52.7505 14.48 52.7115 14.372 52.7115 14.222V14.078C52.7115 13.928 52.7535 13.823 52.8375 13.763C52.9215 13.703 53.0475 13.673 53.2155 13.673C53.3955 13.673 53.5245 13.706 53.6025 13.772C53.6805 13.832 53.7195 13.934 53.7195 14.078V14.222C53.7195 14.378 53.6775 14.486 53.5935 14.546C53.5155 14.606 53.3865 14.636 53.2065 14.636ZM58.7551 13.34C58.8871 13.34 58.9951 13.382 59.0791 13.466C59.1631 13.55 59.2051 13.661 59.2051 13.799V19.541C59.2051 19.673 59.1631 19.784 59.0791 19.874C58.9951 19.958 58.8871 20 58.7551 20C58.6291 20 58.5211 19.958 58.4311 19.874C58.3471 19.784 58.3051 19.673 58.3051 19.541V18.893L58.4941 18.902C58.4941 19.01 58.4491 19.133 58.3591 19.271C58.2751 19.403 58.1581 19.532 58.0081 19.658C57.8581 19.784 57.6811 19.889 57.4771 19.973C57.2731 20.051 57.0541 20.09 56.8201 20.09C56.4061 20.09 56.0341 19.985 55.7041 19.775C55.3741 19.559 55.1131 19.268 54.9211 18.902C54.7291 18.53 54.6331 18.104 54.6331 17.624C54.6331 17.144 54.7291 16.721 54.9211 16.355C55.1131 15.983 55.3711 15.692 55.6951 15.482C56.0251 15.266 56.3911 15.158 56.7931 15.158C57.0451 15.158 57.2791 15.2 57.4951 15.284C57.7171 15.368 57.9091 15.476 58.0711 15.608C58.2331 15.74 58.3591 15.881 58.4491 16.031C58.5391 16.175 58.5841 16.313 58.5841 16.445L58.3051 16.472V13.799C58.3051 13.667 58.3471 13.559 58.4311 13.475C58.5211 13.385 58.6291 13.34 58.7551 13.34ZM56.9191 19.262C57.2071 19.262 57.4561 19.19 57.6661 19.046C57.8821 18.902 58.0501 18.707 58.1701 18.461C58.2901 18.215 58.3501 17.936 58.3501 17.624C58.3501 17.312 58.2901 17.033 58.1701 16.787C58.0501 16.541 57.8821 16.346 57.6661 16.202C57.4501 16.058 57.2011 15.986 56.9191 15.986C56.6431 15.986 56.3971 16.058 56.1811 16.202C55.9711 16.346 55.8031 16.541 55.6771 16.787C55.5571 17.033 55.4971 17.312 55.4971 17.624C55.4971 17.936 55.5571 18.215 55.6771 18.461C55.8031 18.707 55.9711 18.902 56.1811 19.046C56.3971 19.19 56.6431 19.262 56.9191 19.262ZM67.5428 14.06C67.6748 14.126 67.7498 14.228 67.7678 14.366C67.7918 14.504 67.7588 14.63 67.6688 14.744C67.6028 14.834 67.5158 14.885 67.4078 14.897C67.3058 14.909 67.2038 14.888 67.1018 14.834C66.9278 14.744 66.7448 14.672 66.5528 14.618C66.3608 14.564 66.1568 14.537 65.9408 14.537C65.5988 14.537 65.2898 14.594 65.0138 14.708C64.7438 14.816 64.5098 14.975 64.3118 15.185C64.1138 15.389 63.9608 15.632 63.8528 15.914C63.7508 16.196 63.6998 16.508 63.6998 16.85C63.6998 17.228 63.7568 17.564 63.8708 17.858C63.9848 18.146 64.1408 18.392 64.3388 18.596C64.5428 18.794 64.7798 18.944 65.0498 19.046C65.3258 19.142 65.6228 19.19 65.9408 19.19C66.1448 19.19 66.3428 19.166 66.5348 19.118C66.7328 19.07 66.9188 18.998 67.0928 18.902C67.2008 18.848 67.3058 18.83 67.4078 18.848C67.5158 18.86 67.6028 18.911 67.6688 19.001C67.7708 19.127 67.8068 19.256 67.7768 19.388C67.7528 19.514 67.6778 19.61 67.5518 19.676C67.4018 19.76 67.2368 19.832 67.0568 19.892C66.8768 19.952 66.6938 20 66.5078 20.036C66.3218 20.072 66.1328 20.09 65.9408 20.09C65.5088 20.09 65.1008 20.018 64.7168 19.874C64.3328 19.73 63.9908 19.52 63.6908 19.244C63.3908 18.968 63.1538 18.629 62.9798 18.227C62.8118 17.825 62.7278 17.366 62.7278 16.85C62.7278 16.388 62.8058 15.962 62.9618 15.572C63.1238 15.176 63.3488 14.837 63.6368 14.555C63.9308 14.267 64.2728 14.045 64.6628 13.889C65.0528 13.727 65.4788 13.646 65.9408 13.646C66.2288 13.646 66.5078 13.682 66.7778 13.754C67.0538 13.826 67.3088 13.928 67.5428 14.06ZM72.5715 15.194C72.7035 15.194 72.8115 15.239 72.8955 15.329C72.9795 15.413 73.0215 15.521 73.0215 15.653V19.541C73.0215 19.673 72.9795 19.784 72.8955 19.874C72.8115 19.958 72.7035 20 72.5715 20C72.4455 20 72.3375 19.958 72.2475 19.874C72.1635 19.784 72.1215 19.673 72.1215 19.541V18.893L72.3105 18.92C72.3105 19.028 72.2655 19.148 72.1755 19.28C72.0915 19.412 71.9745 19.541 71.8245 19.667C71.6745 19.787 71.4975 19.889 71.2935 19.973C71.0895 20.051 70.8705 20.09 70.6365 20.09C70.2225 20.09 69.8505 19.985 69.5205 19.775C69.1905 19.559 68.9295 19.265 68.7375 18.893C68.5455 18.521 68.4495 18.098 68.4495 17.624C68.4495 17.138 68.5455 16.712 68.7375 16.346C68.9295 15.974 69.1875 15.683 69.5115 15.473C69.8415 15.263 70.2075 15.158 70.6095 15.158C70.8675 15.158 71.1045 15.2 71.3205 15.284C71.5425 15.368 71.7345 15.476 71.8965 15.608C72.0585 15.74 72.1815 15.881 72.2655 16.031C72.3555 16.175 72.4005 16.313 72.4005 16.445L72.1215 16.472V15.653C72.1215 15.527 72.1635 15.419 72.2475 15.329C72.3375 15.239 72.4455 15.194 72.5715 15.194ZM70.7355 19.262C71.0175 19.262 71.2665 19.19 71.4825 19.046C71.6985 18.902 71.8665 18.707 71.9865 18.461C72.1065 18.209 72.1665 17.93 72.1665 17.624C72.1665 17.312 72.1065 17.033 71.9865 16.787C71.8665 16.541 71.6985 16.346 71.4825 16.202C71.2665 16.058 71.0175 15.986 70.7355 15.986C70.4595 15.986 70.2135 16.058 69.9975 16.202C69.7875 16.346 69.6195 16.541 69.4935 16.787C69.3735 17.033 69.3135 17.312 69.3135 17.624C69.3135 17.93 69.3735 18.209 69.4935 18.461C69.6195 18.707 69.7875 18.902 69.9975 19.046C70.2135 19.19 70.4595 19.262 70.7355 19.262ZM74.0033 19.262C73.9493 19.178 73.9253 19.082 73.9313 18.974C73.9373 18.86 74.0003 18.764 74.1203 18.686C74.2043 18.632 74.2913 18.611 74.3813 18.623C74.4773 18.629 74.5673 18.674 74.6513 18.758C74.8193 18.944 75.0053 19.091 75.2093 19.199C75.4193 19.307 75.6713 19.361 75.9653 19.361C76.0853 19.355 76.2083 19.337 76.3343 19.307C76.4603 19.271 76.5683 19.211 76.6583 19.127C76.7483 19.037 76.7933 18.908 76.7933 18.74C76.7933 18.59 76.7453 18.47 76.6493 18.38C76.5533 18.29 76.4273 18.218 76.2713 18.164C76.1153 18.104 75.9473 18.05 75.7673 18.002C75.5753 17.948 75.3803 17.888 75.1823 17.822C74.9903 17.756 74.8163 17.672 74.6603 17.57C74.5043 17.462 74.3753 17.324 74.2733 17.156C74.1773 16.988 74.1293 16.781 74.1293 16.535C74.1293 16.253 74.2073 16.01 74.3633 15.806C74.5253 15.602 74.7323 15.443 74.9843 15.329C75.2423 15.215 75.5213 15.158 75.8213 15.158C75.9953 15.158 76.1783 15.182 76.3703 15.23C76.5623 15.272 76.7483 15.341 76.9283 15.437C77.1083 15.533 77.2643 15.659 77.3963 15.815C77.4563 15.893 77.4893 15.986 77.4953 16.094C77.5073 16.202 77.4593 16.298 77.3513 16.382C77.2793 16.442 77.1923 16.469 77.0903 16.463C76.9883 16.457 76.9043 16.424 76.8383 16.364C76.7243 16.22 76.5773 16.109 76.3973 16.031C76.2173 15.947 76.0133 15.905 75.7853 15.905C75.6713 15.905 75.5513 15.923 75.4253 15.959C75.3053 15.989 75.2033 16.046 75.1193 16.13C75.0353 16.214 74.9933 16.337 74.9933 16.499C74.9933 16.649 75.0413 16.769 75.1373 16.859C75.2393 16.949 75.3713 17.024 75.5333 17.084C75.6953 17.144 75.8723 17.198 76.0643 17.246C76.2503 17.294 76.4333 17.351 76.6133 17.417C76.7993 17.483 76.9643 17.57 77.1083 17.678C77.2583 17.78 77.3783 17.915 77.4683 18.083C77.5643 18.245 77.6123 18.452 77.6123 18.704C77.6123 18.998 77.5253 19.25 77.3513 19.46C77.1833 19.664 76.9673 19.82 76.7033 19.928C76.4453 20.036 76.1723 20.09 75.8843 20.09C75.5423 20.09 75.2003 20.03 74.8583 19.91C74.5223 19.784 74.2373 19.568 74.0033 19.262ZM80.7852 20.09C80.2872 20.09 79.8552 19.988 79.4892 19.784C79.1232 19.574 78.8382 19.289 78.6342 18.929C78.4362 18.563 78.3372 18.146 78.3372 17.678C78.3372 17.15 78.4422 16.7 78.6522 16.328C78.8682 15.95 79.1472 15.662 79.4892 15.464C79.8312 15.26 80.1942 15.158 80.5782 15.158C80.8722 15.158 81.1512 15.218 81.4152 15.338C81.6792 15.452 81.9132 15.614 82.1172 15.824C82.3272 16.028 82.4922 16.271 82.6122 16.553C82.7322 16.829 82.7952 17.132 82.8012 17.462C82.7952 17.582 82.7472 17.681 82.6572 17.759C82.5672 17.837 82.4622 17.876 82.3422 17.876H78.8412L78.6252 17.111H82.0092L81.8382 17.273V17.048C81.8262 16.838 81.7572 16.655 81.6312 16.499C81.5052 16.337 81.3492 16.214 81.1632 16.13C80.9772 16.04 80.7822 15.995 80.5782 15.995C80.3982 15.995 80.2242 16.025 80.0562 16.085C79.8942 16.139 79.7472 16.229 79.6152 16.355C79.4892 16.481 79.3872 16.649 79.3092 16.859C79.2372 17.063 79.2012 17.318 79.2012 17.624C79.2012 17.954 79.2702 18.242 79.4082 18.488C79.5462 18.734 79.7322 18.926 79.9662 19.064C80.2002 19.196 80.4582 19.262 80.7402 19.262C80.9622 19.262 81.1452 19.241 81.2892 19.199C81.4332 19.151 81.5532 19.094 81.6492 19.028C81.7452 18.962 81.8292 18.899 81.9012 18.839C81.9912 18.785 82.0812 18.758 82.1712 18.758C82.2792 18.758 82.3692 18.797 82.4412 18.875C82.5132 18.947 82.5492 19.034 82.5492 19.136C82.5492 19.268 82.4832 19.388 82.3512 19.496C82.1892 19.652 81.9642 19.79 81.6762 19.91C81.3942 20.03 81.0972 20.09 80.7852 20.09ZM83.5395 19.262C83.4855 19.178 83.4615 19.082 83.4675 18.974C83.4735 18.86 83.5365 18.764 83.6565 18.686C83.7405 18.632 83.8275 18.611 83.9175 18.623C84.0135 18.629 84.1035 18.674 84.1875 18.758C84.3555 18.944 84.5415 19.091 84.7455 19.199C84.9555 19.307 85.2075 19.361 85.5015 19.361C85.6215 19.355 85.7445 19.337 85.8705 19.307C85.9965 19.271 86.1045 19.211 86.1945 19.127C86.2845 19.037 86.3295 18.908 86.3295 18.74C86.3295 18.59 86.2815 18.47 86.1855 18.38C86.0895 18.29 85.9635 18.218 85.8075 18.164C85.6515 18.104 85.4835 18.05 85.3035 18.002C85.1115 17.948 84.9165 17.888 84.7185 17.822C84.5265 17.756 84.3525 17.672 84.1965 17.57C84.0405 17.462 83.9115 17.324 83.8095 17.156C83.7135 16.988 83.6655 16.781 83.6655 16.535C83.6655 16.253 83.7435 16.01 83.8995 15.806C84.0615 15.602 84.2685 15.443 84.5205 15.329C84.7785 15.215 85.0575 15.158 85.3575 15.158C85.5315 15.158 85.7145 15.182 85.9065 15.23C86.0985 15.272 86.2845 15.341 86.4645 15.437C86.6445 15.533 86.8005 15.659 86.9325 15.815C86.9925 15.893 87.0255 15.986 87.0315 16.094C87.0435 16.202 86.9955 16.298 86.8875 16.382C86.8155 16.442 86.7285 16.469 86.6265 16.463C86.5245 16.457 86.4405 16.424 86.3745 16.364C86.2605 16.22 86.1135 16.109 85.9335 16.031C85.7535 15.947 85.5495 15.905 85.3215 15.905C85.2075 15.905 85.0875 15.923 84.9615 15.959C84.8415 15.989 84.7395 16.046 84.6555 16.13C84.5715 16.214 84.5295 16.337 84.5295 16.499C84.5295 16.649 84.5775 16.769 84.6735 16.859C84.7755 16.949 84.9075 17.024 85.0695 17.084C85.2315 17.144 85.4085 17.198 85.6005 17.246C85.7865 17.294 85.9695 17.351 86.1495 17.417C86.3355 17.483 86.5005 17.57 86.6445 17.678C86.7945 17.78 86.9145 17.915 87.0045 18.083C87.1005 18.245 87.1485 18.452 87.1485 18.704C87.1485 18.998 87.0615 19.25 86.8875 19.46C86.7195 19.664 86.5035 19.82 86.2395 19.928C85.9815 20.036 85.7085 20.09 85.4205 20.09C85.0785 20.09 84.7365 20.03 84.3945 19.91C84.0585 19.784 83.7735 19.568 83.5395 19.262Z" fill="white"/>
</g>
<defs>
<clipPath id="clip0">
<rect width="92" height="32" fill="white"/>
</clipPath>
</defs>
</svg>
